<svg width="10" height="10" xmlns="http://www.w3.org/2000/svg">

 <g>
  <title>Layer 1</title>
  <path id="svg_1" fill="currentColor" d="m1.17213,0.71117c0.21649,-0.23498 0.56747,-0.23498 0.78396,0l3.23369,3.50991l3.23462,-3.5109c0.21647,-0.23498 0.56747,-0.23498 0.78394,0c0.21647,0.23496 0.21647,0.61594 0,0.85091l-3.2346,3.51092l3.23389,3.51012c0.21647,0.23496 0.21647,0.61594 0,0.85091c-0.21649,0.23498 -0.56747,0.23498 -0.78396,0l-3.23389,-3.51012l-3.23297,3.50913c-0.21649,0.23498 -0.56747,0.23498 -0.78396,0c-0.21647,-0.23496 -0.21647,-0.61592 0,-0.85091l3.23299,-3.50913l-3.2337,-3.50992c-0.21647,-0.23496 -0.21647,-0.61594 0,-0.85091z" clip-rule="evenodd" fill-rule="evenodd"/>
 </g>
</svg>